<?xml version="1.0" encoding="UTF-8"?><svg id="Layout" xmlns="http://www.w3.org/2000/svg" xmlns:xlink="http://www.w3.org/1999/xlink" viewBox="0 0 404 200"><defs><style>.cls-1{fill:url(#linear-gradient);}.cls-1,.cls-2{fill-rule:evenodd;}.cls-1,.cls-2,.cls-3{stroke-width:0px;}.cls-2{fill:#fff;}</style><linearGradient id="linear-gradient" x1="202.14" y1="0" x2="202.14" y2="200" gradientUnits="userSpaceOnUse"><stop offset="0" stop-color="#00b8f1"/><stop offset=".02" stop-color="#00b5ef"/><stop offset=".31" stop-color="#0d90d8"/><stop offset=".58" stop-color="#1675c8"/><stop offset=".82" stop-color="#1c64be"/><stop offset="1" stop-color="#1e5fbb"/></linearGradient></defs><polyline class="cls-1" points="0 200 204.32 200 404.29 0 0 0 0 200"/><path class="cls-2" d="M239.92,37.61l-39.79-.03v94.62l-34.76-94.62h-34.47l-29.68,79.13c-3.16-19.95-23.8-26.84-40.04-32.01-10.72-3.44-22.1-8.51-21.99-14.1.09-4.59,6.1-8.86,18.02-8.22,8.01.42,15.07,1.07,29.13,7.85l13.83-24.08c-12.83-6.53-30.56-10.65-45.08-10.67h-.08c-16.94,0-31.05,5.49-39.81,14.53-6.1,6.32-9.38,14.34-9.52,23.21-.22,12.21,4.26,20.87,13.66,27.78,7.95,5.83,18.11,9.6,27.06,12.38,11.05,3.42,20.07,6.4,19.96,12.75-.08,2.3-.96,4.46-2.62,6.21-2.75,2.84-6.98,3.91-12.83,4.01-11.27.24-19.63-1.52-32.95-9.39l-12.29,24.41c13.28,7.56,29,11.99,45.05,11.99l2.07-.03c13.97-.25,25.24-4.23,34.24-11.48.52-.41.98-.83,1.46-1.26l-3.99,10.66h36.15l6.07-18.45c6.35,2.17,13.58,3.37,21.25,3.37s14.51-1.15,20.74-3.19l5.85,18.26h58.96v-38.19h12.86c31.07,0,49.46-15.84,49.46-42.36,0-29.55-17.86-43.11-55.89-43.11ZM147.95,118.57c-4.64,0-9-.8-12.75-2.22l12.61-39.8h.24l12.39,39.91c-3.72,1.32-7.98,2.11-12.49,2.11ZM242.26,95.7h-8.77v-32.07h8.77c11.69,0,21.01,3.88,21.01,15.82s-9.32,16.25-21.01,16.25"/><path class="cls-3" d="M394.69,142.55l15.02-15.11c7.6,9.89,18.2,16.52,35.69,16.52,14.31,0,25.18-4.77,25.18-16.43,0-12.28-12.54-15.81-29.5-19.96-19.52-4.68-40.73-11.13-40.73-37.1,0-24.47,20.05-35.16,45.85-35.16,20.32,0,34.98,6.72,44.61,17.93l-14.58,14.58c-7.68-8.75-17.23-13.52-30.83-13.52-15.37,0-22,6.36-22,14.84,0,11.22,11.4,14.22,27.12,18.2,20.94,4.95,43.2,10.87,43.2,38.43,0,22.35-16.7,37.63-48.76,37.63-23.5,0-40.11-7.86-50.27-20.85Z"/><path class="cls-3" d="M552.02,31.51h19.43l-54.5,135.78h-19.44l54.51-135.78Z"/><path class="cls-3" d="M619.89,137.07h-57.07v-18.46l54.33-81.45h23.67v81.63h16.61v18.28h-16.61v24.56h-20.93v-24.56ZM619.89,118.79v-40.37c0-4.95,0-10.95.35-16.17-1.68,3.09-4.51,7.42-6.36,10.42l-25.44,38.16c-1.5,2.21-3.98,5.92-5.48,7.95h36.93Z"/><path class="cls-3" d="M673.46,37.16h23.5v49.29h55.12v-49.29h23.58v124.47h-23.58v-53.53h-55.12v53.53h-23.5V37.16Z"/><path class="cls-3" d="M832.76,37.16h27.47l45.67,124.47h-24.12l-10.16-30.3h-50.79l-10.16,30.3h-23.5l45.58-124.47ZM865.27,112.34l-12.72-37.99c-2.12-6.18-5.04-14.58-6.36-19.17-1.32,4.59-4.06,12.99-6.18,19.17l-12.72,37.99h37.99Z"/><path class="cls-3" d="M917.33,37.16h27.65l56.27,98.15c-.44-5.04-.79-16.34-.79-27.39V37.16h21.29v124.47h-28.36l-55.57-96.91c.44,5.04.79,16.25.79,27.38v69.52h-21.29V37.16Z"/><path class="cls-3" d="M1078.84,37.16h27.47l45.67,124.47h-24.12l-10.16-30.3h-50.79l-10.16,30.3h-23.5l45.58-124.47ZM1111.35,112.34l-12.72-37.99c-2.12-6.18-5.04-14.58-6.36-19.17-1.32,4.59-4.06,12.99-6.18,19.17l-12.72,37.99h37.99Z"/><path class="cls-3" d="M1191.26,99.35c0-43.55,27.92-64.05,63.34-64.05,21.56,0,37.63,7.51,48.94,20.5l-15.81,15.81c-7.15-9.27-17.31-15.46-33.04-15.46-24.56,0-39.13,15.02-39.13,43.2s14.58,43.29,39.13,43.29c15.73,0,25.89-6.18,33.04-15.46l15.81,15.81c-11.22,12.9-27.47,20.41-48.94,20.41-35.42,0-63.34-20.41-63.34-64.05Z"/><path class="cls-3" d="M1315.97,137.87V29.92h22.44v104.06c0,7.51,1.77,10.16,8.21,10.16,2.74,0,5.12-.44,7.69-.97v18.46c-3.54.88-8.31,1.59-13.17,1.59-18.2,0-25.17-8.66-25.17-25.35Z"/><path class="cls-3" d="M1362.96,113.31c0-30.48,20.32-50.18,49.21-50.18s49.2,19.7,49.2,50.18-20.32,50.09-49.2,50.09-49.21-19.61-49.21-50.09ZM1437.96,113.31c0-20.85-10.78-31.98-25.79-31.98s-25.8,11.13-25.8,31.98,10.78,31.98,25.8,31.98,25.79-11.22,25.79-31.98Z"/><path class="cls-3" d="M1477.95,128.68v-63.69h22.44v58.39c0,12.9,4.42,20.85,17.4,20.85s21.64-8.92,21.64-25.18v-54.06h22.26v96.64h-21.56v-20.41h-.44c-4.42,11.13-13.16,22.17-31.72,22.17-20.67,0-30.03-14.13-30.03-34.72Z"/><path class="cls-3" d="M1579.34,113.31c0-30.12,15.11-50.18,40.11-50.18,18.81,0,29.68,10.07,34.19,21.03h.44V29.92h22.35v131.71h-21.56v-19.88h-.44c-4.68,11.13-13.69,21.64-34.1,21.64-24.56,0-40.99-18.99-40.99-50.09ZM1654.25,113.31c0-20.85-10.69-31.98-25.7-31.98s-25.8,11.13-25.8,31.98,10.69,31.98,25.8,31.98,25.7-11.22,25.7-31.98Z"/></svg>